<svg xmlns="http://www.w3.org/2000/svg" xmlns:svg="http://www.w3.org/2000/svg" id="Capa_1" width="512" height="512" x="0" style="enable-background:new 0 0 522.394 522.393" y="0" version="1.1" viewBox="0 0 522.394 522.393" xml:space="preserve"><metadata id="metadata41"/><circle id="path4169" cx="261.197" cy="261.197" r="261.11" style="opacity:1;fill:#ceb28d;fill-opacity:1;stroke:none;stroke-width:.17413709;stroke-linecap:butt;stroke-linejoin:miter;stroke-miterlimit:4;stroke-dasharray:none;stroke-opacity:1"/><g id="g4210" transform="matrix(0.43443787,0,0,0.43443792,150.92464,148.4048)" style="fill:#fff;fill-opacity:1"><g id="g4212" style="fill:#fff;fill-opacity:1"><path id="path4214" d="m 494.2,488 c 0,0 0,-225.8 0,-301 0,-3.1 -3.9,-7 -7.7,-9.9 l -78.7,-57.1 0,-63.1 c 0,-6.2 -5.2,-10.4 -10.4,-10.4 l -89.7,0 L 262,13.2 c -3.1,-2.1 -8.3,-2.1 -11.5,0 l -45.7,33.3 -89.7,0 c -6.2,0 -10.4,5.2 -10.4,10.4 l 0,62.4 -79.7,57.9 c -4.7,2.9 -7.7,6.7 -7.7,9.9 0,75.7 0,303 0,303 0,5.9 4.7,10 9.6,10.4 0.3,0 0.5,0 0.8,0 l 456,0 c 6.7,-0.1 10.5,-5.3 10.5,-12.5 z m -19.8,-282.3 0,263.6 L 302.3,331.5 474.4,205.7 Z m -7.7,-18.3 -58.9,42.9 0,-86.2 58.9,43.3 z M 255.8,32.9 l 18.3,13.5 -36.7,0 18.4,-13.5 z m 131.2,34.4 0,178.2 -131.2,95.6 -131.2,-95.6 0,-178.2 262.4,0 z M 37.2,205.7 209.3,331.5 37.2,470.1 l 0,-264.4 z m 67.6,25.4 -60.4,-44 60.4,-43.9 0,87.9 z M 55.9,480.6 226,343.7 l 23.5,17.2 c 4.5,3.4 7.9,3.4 12.5,0 l 23.5,-17.2 171.1,136.9 -400.7,0 z" style="fill:#fff;fill-opacity:1"/><rect id="rect4216" width="140.5" height="19.8" x="186.1" y="118.3" style="fill:#fff;fill-opacity:1"/><rect id="rect4218" width="140.5" height="19.8" x="186.1" y="181.8" style="fill:#fff;fill-opacity:1"/><rect id="rect4220" width="140.5" height="19.8" x="186.1" y="245.3" style="fill:#fff;fill-opacity:1"/></g></g></svg>