<svg xmlns="http://www.w3.org/2000/svg" xmlns:xlink="http://www.w3.org/1999/xlink" width="512" height="512" enable-background="new 0 0 64 64" version="1.1" viewBox="0 0 64 64"><g><g fill="#1D1D1B"><path fill="#a3a3a3" d="m16.939,40.09h-8.138c-1.173,0-2.122,0.949-2.122,2.122v19.666c0,1.173 0.949,2.122 2.122,2.122h8.139c1.173,0 2.122-0.949 2.122-2.122v-19.666c3.55271e-15-1.173-0.95-2.122-2.123-2.122zm-2.122,19.666h-3.895v-15.422h3.895v15.422z"/><path fill="#a3a3a3" d="m35.803,25.216h-8.139c-1.173,0-2.122,0.949-2.122,2.122v34.54c0,1.173 0.949,2.122 2.122,2.122h8.139c1.173,0 2.122-0.949 2.122-2.122v-34.54c0-1.173-0.949-2.122-2.122-2.122zm-2.122,34.54h-3.895v-30.296h3.895v30.296z"/><path fill="#a3a3a3" d="m54.878,9.771h-8.139c-1.173,0-2.122,0.949-2.122,2.122v49.985c0,1.173 0.949,2.122 2.122,2.122h8.139c1.173,0 2.122-0.949 2.122-2.122v-49.985c0-1.173-0.949-2.122-2.122-2.122zm-2.122,49.985h-3.895v-45.741h3.895v45.741z"/></g></g></svg>