<svg xmlns="http://www.w3.org/2000/svg" xmlns:svg="http://www.w3.org/2000/svg" style="enable-background:new 0 0 235.588 235.588" id="Capa_1" width="512" height="512" x="0" y="0" version="1.1" viewBox="0 0 235.588 235.588" xml:space="preserve"><metadata id="metadata39"/><path id="path3" d="m 48.840641,22.417231 c -16.653686,0.0045 -30.200768,13.554584 -30.200768,30.206458 l 0,152.758671 c 0,16.65188 13.548617,30.20203 30.203203,30.20565 l 142.449974,0 c 3.74877,0 6.786,-3.03813 6.786,-6.78601 l 0,-46.8409 0.0853,-91.559473 -13.57282,0 -0.0853,84.774283 -135.665589,0 c -6.140284,0.002 -11.855791,1.84929 -16.627947,5.01083 l 0,-127.563051 c 0,-9.1688 7.461584,-16.630923 16.630382,-16.633637 l 6.973037,0 0,50.846643 c 0,3.747871 3.043733,6.786816 6.792508,6.786816 1.800644,0 3.527098,-0.715021 4.800215,-1.989041 l 8.958826,-8.963706 8.961267,8.964518 c 1.272213,1.273116 2.998755,1.988229 4.799398,1.988229 l 0.0033,0 c 3.748775,0 6.786816,-3.038945 6.786816,-6.786816 l 0,-50.846643 33.873916,0 0,-13.572821 -40.661544,0 -27.527837,0 z m 20.547481,13.572821 13.956641,0 0,34.463465 -2.180142,-2.180141 c -1.272213,-1.273117 -2.998755,-1.98823 -4.799399,-1.98823 -1.800643,0 -3.527093,0.715925 -4.800214,1.989042 l -2.176886,2.177702 z m -20.545046,152.757858 135.663154,0 0,9.84845 -135.663154,0 c -3.748774,0 -6.786815,3.03813 -6.786815,6.786 0,3.74787 3.038041,6.78682 6.786815,6.78682 l 135.663154,0 0,9.84601 -135.661526,0 c -9.171515,-0.002 -16.63201,-7.46312 -16.63201,-16.63283 0,-9.1697 7.461584,-16.63173 16.630382,-16.63445 z" style="fill:#fff;fill-opacity:1"/><path id="path4278" d="m 216.98883,25.999605 -20.85158,0 c -0.73594,0 -1.22656,-0.490625 -1.22656,-1.226561 l 0,-20.8515854 c 0,-1.471878 -0.98126,-2.4531269 -2.45313,-2.4531269 l -4.90626,0 c -1.47187,0 -2.45313,0.9812489 -2.45313,2.4531269 l 0,20.8515854 c 0,0.735936 -0.49062,1.226561 -1.22656,1.226561 l -20.85158,0 c -1.47187,0 -2.45312,0.981248 -2.45312,2.453127 l 0,4.906259 c 0,1.471873 0.98125,2.453121 2.45312,2.453121 l 20.85158,0 c 0.73594,0 1.22656,0.49063 1.22656,1.226566 l 0,20.851586 c 0,1.471873 0.98126,2.453126 2.45313,2.453126 l 4.90626,0 c 1.47187,0 2.45313,-0.981253 2.45313,-2.453126 l 0,-20.851586 c 0,-0.735936 0.49062,-1.226566 1.22656,-1.226566 l 20.85158,0 c 1.47188,0 2.45313,-0.981248 2.45313,-2.453121 l 0,-4.906259 c 0,-1.471879 -0.98125,-2.453127 -2.45313,-2.453127 z" style="fill:#fff"/></svg>