<svg xmlns="http://www.w3.org/2000/svg" xmlns:svg="http://www.w3.org/2000/svg" id="Capa_1" width="512" height="512" x="0" style="enable-background:new 0 0 522.394 522.393" y="0" version="1.1" viewBox="0 0 522.394 522.393" xml:space="preserve"><metadata id="metadata41"/><circle id="path4169" cx="261.197" cy="261.197" r="261.11" style="opacity:1;fill:#f9f9f9;fill-opacity:1;stroke:none;stroke-width:.17413709;stroke-linecap:butt;stroke-linejoin:miter;stroke-miterlimit:4;stroke-dasharray:none;stroke-opacity:1"/><g style="fill:#a3a3a3;fill-opacity:1" id="g3" transform="matrix(0.49449305,0,0,0.49449305,130.42783,133.85834)"><path style="fill:#a3a3a3;fill-opacity:1" id="path5" d="M 517.323,150.292 394.464,62.97 c -2.319,-1.646 -5.082,-2.469 -7.83,-2.473 -2.727,-0.004 -5.474,0.809 -7.783,2.426 L 260.428,145.936 145.388,63.019 c -2.342,-1.695 -5.149,-2.529 -7.936,-2.521 -2.71,0.008 -5.444,0.814 -7.743,2.426 L 5.136,150.245 C 1.916,152.498 0,156.184 0,160.116 l 0,289.723 c 0,4.499 2.501,8.619 6.493,10.698 1.748,0.911 3.658,1.36 5.562,1.36 2.431,0 4.853,-0.736 6.919,-2.187 l 118.422,-83.012 115.042,82.916 c 2.092,1.515 4.565,2.281 7.048,2.281 0.289,0 1.425,0 1.711,0 2.432,0 4.854,-0.736 6.92,-2.187 l 118.463,-83.041 116.774,82.995 c 2.081,1.479 4.525,2.231 6.983,2.231 1.89,0 3.787,-0.442 5.53,-1.345 4.006,-2.072 6.525,-6.202 6.525,-10.715 l 0,-289.72 c 0.004,-3.899 -1.886,-7.562 -5.069,-9.821 z m -392.752,205.957 -100.46,70.414 0,-260.277 100.459,-70.417 0.001,260.28 0,0 z m 122.861,70.039 -97.04,-69.938 0,-260.003 97.04,69.938 0,260.003 z m 126.281,-70.039 -100.46,70.414 0,-260.277 100.46,-70.417 0,260.28 z m 124.571,70.232 -98.75,-70.184 0,-260.144 98.75,70.185 0,260.143 z"/></g></svg>