<svg xmlns="http://www.w3.org/2000/svg" xmlns:svg="http://www.w3.org/2000/svg" id="Capa_1" x="0" y="0" version="1.1" viewBox="0 0 512 512" xml:space="preserve" style="enable-background:new 0 0 512 512"><metadata id="metadata13"/><style id="style3" type="text/css">.st0{fill:#a3a3a3}</style><g id="g5" style="fill:#fff;fill-opacity:.94117647"><path id="path7" d="M511.4,197.4c-1.8-5.5-6.9-9.1-12.6-9.1H322.9L268.6,21c-1.8-5.5-6.9-9.1-12.6-9.1c-5.7,0-10.8,3.7-12.6,9.1 l-54.3,167.2H13.2c-5.7,0-10.8,3.7-12.6,9.1c-1.8,5.5,0.2,11.4,4.8,14.8l142.3,103.4L93.4,482.8c-1.8,5.5,0.2,11.4,4.8,14.8 c4.6,3.4,10.9,3.4,15.6,0L256,394.2l142.3,103.4c2.3,1.7,5.1,2.5,7.8,2.5c2.7,0,5.5-0.8,7.8-2.5c4.6-3.4,6.6-9.3,4.8-14.8 l-54.3-167.2l142.2-103.4C511.2,208.8,513.1,202.9,511.4,197.4z" class="st0" style="fill:#fff;fill-opacity:.94117647"/></g></svg>