<svg xmlns="http://www.w3.org/2000/svg" xmlns:svg="http://www.w3.org/2000/svg" id="Capa_1" width="512" height="512" x="0" style="enable-background:new 0 0 522.394 522.393" y="0" version="1.1" viewBox="0 0 522.394 522.393" xml:space="preserve"><metadata id="metadata41"/><circle id="path4169" cx="261.197" cy="261.197" r="261.11" style="opacity:1;fill:#ceb28d;fill-opacity:1;stroke:none;stroke-width:.17413709;stroke-linecap:butt;stroke-linejoin:miter;stroke-miterlimit:4;stroke-dasharray:none;stroke-opacity:1"/><g id="g4228" transform="matrix(0.40627271,0,0,0.40627275,157.89329,156.15748)" style="fill:#fff;fill-opacity:.94117647"><g id="g4230" style="fill:#fff;fill-opacity:.94117647"><path id="path4232" d="m 490.2,358.8 -44.7,-44.7 c -13.5,-13.5 -37.5,-12.5 -49.9,1 -29.1,32.3 -40.6,36.4 -43.7,37.5 -5.2,1 -10.4,1 -15.6,1 -41.6,0 -96.8,-31.2 -135.2,-79.1 -32.3,-39.5 -47.9,-82.2 -41.6,-114.4 1,-2.1 5.2,-14.6 37.5,-43.7 7.3,-6.2 11.4,-15.6 11.4,-25 0,-9.4 -4.2,-18.7 -10.4,-25 L 153.3,21.7 C 141.9,10.3 123.1,8.2 109.6,17.5 64.8,49.8 11.7,93.5 11.7,124.7 c 0,133.2 242.4,375.6 375.6,375.6 32.3,0 75.9,-53.1 107.2,-97.8 9.3,-13.5 7.2,-32.2 -4.3,-43.7 z m -11.4,33.3 c -38.5,54.1 -73.9,88.4 -90.5,88.4 -122.8,0 -355.8,-233 -355.8,-355.8 0,-17.7 33.3,-52 88.4,-90.5 5.3,-3.4 12,-3.2 17.7,3.1 L 183.3,82 c 6.4,6.8 3.2,17 -1,20.8 -35.4,32.3 -41.6,46.8 -43.7,55.1 -7.3,38.5 9.4,86.3 45.8,131.1 42.7,52 102,86.3 150.8,86.3 7.3,0 13.5,-1 19.8,-2.1 8.3,-2.1 22.9,-8.3 55.1,-43.7 5.2,-6.2 15.6,-6.2 20.8,-1 l 45.8,45.8 c 5.2,4.3 6.3,12.6 2.1,17.8 z" style="fill:#fff;fill-opacity:.94117647"/><path id="path4234" d="m 409.1,108.1 c 34.3,34.3 48.9,83.2 40.6,130 l 19.8,3.1 C 478.9,187.1 461.2,132 423.7,93.5 383.1,52.9 324.9,36.3 268.7,48.8 l 4.2,19.8 c 48.8,-11.5 99.8,3.1 136.2,39.5 z" style="fill:#fff;fill-opacity:.94117647"/><path id="path4236" d="m 393.5,230.9 c 5.2,-30.2 -4.2,-61.4 -26,-83.2 -22.9,-22.9 -55.1,-32.3 -87.4,-25 l 4.2,19.8 c 25,-5.2 51,2.1 68.7,19.8 17.7,17.7 25,41.6 20.8,65.5 l 19.7,3.1 z" style="fill:#fff;fill-opacity:.94117647"/></g></g></svg>